<?xml version="1.0" encoding="utf-8"?>
<!-- Generator: Adobe Illustrator 18.0.0, SVG Export Plug-In . SVG Version: 6.00 Build 0)  -->
<!DOCTYPE svg PUBLIC "-//W3C//DTD SVG 1.1//EN" "http://www.w3.org/Graphics/SVG/1.1/DTD/svg11.dtd">
<svg version="1.1" id="Icons" xmlns="http://www.w3.org/2000/svg" xmlns:xlink="http://www.w3.org/1999/xlink" x="0px" y="0px"
	 viewBox="0 0 86 86" enable-background="new 0 0 86 86" xml:space="preserve">
<circle fill="none" stroke="#ED3F6E" stroke-width="2" stroke-miterlimit="10" cx="43" cy="43" r="42"/>
<path fill="#ED3F6E" d="M43,23c6.9,0,12.5,5.6,12.5,12.5c0,7.5-6.2,10-7.5,17.5H38c-1.2-7.5-7.5-10-7.5-17.5
	C30.5,28.6,36.1,23,43,23L43,23z M38,55.5v5c0,0.5,0.3,1,0.9,1.2l3.7,1.2c0.1,0,0.3,0.1,0.4,0.1c0.1,0,0.3,0,0.4-0.1l3.8-1.2
	c0.5-0.2,0.9-0.6,0.9-1.2v-5H38z"/>
</svg>
