<?xml version="1.0" encoding="utf-8"?>
<!-- Generator: Adobe Illustrator 18.0.0, SVG Export Plug-In . SVG Version: 6.00 Build 0)  -->
<!DOCTYPE svg PUBLIC "-//W3C//DTD SVG 1.1//EN" "http://www.w3.org/Graphics/SVG/1.1/DTD/svg11.dtd">
<svg version="1.1" id="Icons" xmlns="http://www.w3.org/2000/svg" xmlns:xlink="http://www.w3.org/1999/xlink" x="0px" y="0px"
	 viewBox="0 0 86 86" enable-background="new 0 0 86 86" xml:space="preserve">
<circle fill="none" stroke="#F0812B" stroke-width="2" stroke-miterlimit="10" cx="43" cy="43" r="42"/>
<g>
	<path fill="#F0812B" d="M59.2,27.3h-4.6c0-0.4,0-0.8,0-1.3C54.5,25.5,54,25,53.4,25H43H32.6c-0.6,0-1.1,0.5-1.1,1.1
		c0,0.4,0,0.8,0,1.3h-4.6c-1.3,0-2.3,1-2.3,2.3c0,2.7,0.7,7.1,2.2,10.7c2.5,6.1,6.1,7.6,8.9,7.8c1.7,2.9,4.2,4.6,7.4,4.6
		s5.7-1.8,7.4-4.6c2.7-0.2,6.3-1.7,8.9-7.8c1.5-3.6,2.2-8,2.2-10.7C61.5,28.3,60.5,27.3,59.2,27.3z M26.8,29.6h4.7
		c0.3,6,1,11.7,2.8,15.9C28.7,43.8,26.8,33.8,26.8,29.6z M51.7,45.5c1.7-4.2,2.5-9.9,2.8-15.9h4.7C59.2,33.8,57.3,43.8,51.7,45.5z"
		/>
	<path fill="#F0812B" d="M45.3,57.6v-2.8c-0.8,0.2-1.6,0.3-2.3,0.3s-1.5-0.1-2.3-0.3v2.8c-3.5,0.6-6,2.5-6.9,4.4h6.9h4.6h6.9
		C51.3,60.1,48.8,58.2,45.3,57.6z"/>
</g>
</svg>
