<?xml version="1.0" encoding="utf-8"?>
<!-- Generator: Adobe Illustrator 18.0.0, SVG Export Plug-In . SVG Version: 6.00 Build 0)  -->
<!DOCTYPE svg PUBLIC "-//W3C//DTD SVG 1.0//EN" "http://www.w3.org/TR/2001/REC-SVG-20010904/DTD/svg10.dtd">
<svg version="1.0" id="Layer_1" xmlns="http://www.w3.org/2000/svg" xmlns:xlink="http://www.w3.org/1999/xlink" x="0px" y="0px"
	 width="60px" height="60px" viewBox="520 520 60 60" enable-background="new 520 520 60 60" xml:space="preserve">
<circle fill="none" stroke="#9EAE3B" stroke-width="2" stroke-miterlimit="10" cx="550" cy="550" r="29"/>
<path fill="#9EAE3B" d="M543,562.3h-7v-15.8h7V562.3z M562.3,547.4c-1-0.2-5.9-0.8-8.8-0.9c1.8-2.6,1.8-8.8,1.8-8.8
	c0-0.9-0.8-1.8-1.8-1.8c-1,0-1.4,0.2-1.7,0.4c-0.9,3.1-2,5.8-2.7,6.6s-4.4,3.5-4.4,3.5v14.1c1.3,0.9,9.8,3.5,14.1,3.5
	c1.6,0,3.2-0.9,3.5-1.8c0.5-1.4,1.8-8.9,1.8-13.2C564.1,548.4,563.3,547.6,562.3,547.4z"/>
</svg>
