<?xml version="1.0" encoding="utf-8"?>
<!-- Generator: Adobe Illustrator 18.0.0, SVG Export Plug-In . SVG Version: 6.00 Build 0)  -->
<!DOCTYPE svg PUBLIC "-//W3C//DTD SVG 1.1//EN" "http://www.w3.org/Graphics/SVG/1.1/DTD/svg11.dtd">
<svg version="1.1" id="Layer_1" xmlns="http://www.w3.org/2000/svg" xmlns:xlink="http://www.w3.org/1999/xlink" x="0px" y="0px"
	 viewBox="0 0 58 58" enable-background="new 0 0 58 58" xml:space="preserve">
<circle fill="none" stroke="#9EAE3B" stroke-width="2" stroke-miterlimit="10" cx="29" cy="29" r="27.8"/>
<path fill="#9EAE3B" d="M41.9,18.1c-1.5,2.9-9.1,12.9-13,15.3c-0.1,0.1-0.3,0.1-0.4,0.1c-0.2,0-0.4-0.1-0.5-0.2L25.7,31
	c-0.1-0.1-0.2-0.3-0.2-0.5c0-0.1,0-0.3,0.1-0.4c2.4-3.9,12.4-11.6,15.3-13C41,17,41.1,17,41.2,17c0.2,0,0.4,0.1,0.5,0.2
	c0.1,0.1,0.2,0.3,0.2,0.5C42,17.9,42,18,41.9,18.1z M18,41c1.5-3,9,0,9-6.7L24.8,32C18.8,32,18,38,18,41z"/>
</svg>
