<?xml version="1.0" encoding="utf-8"?>
<!-- Generator: Adobe Illustrator 18.0.0, SVG Export Plug-In . SVG Version: 6.00 Build 0)  -->
<!DOCTYPE svg PUBLIC "-//W3C//DTD SVG 1.1//EN" "http://www.w3.org/Graphics/SVG/1.1/DTD/svg11.dtd">
<svg version="1.1" id="Layer_1" xmlns="http://www.w3.org/2000/svg" xmlns:xlink="http://www.w3.org/1999/xlink" x="0px" y="0px"
	 viewBox="0 0 58 58" enable-background="new 0 0 58 58" xml:space="preserve">
<circle fill="none" stroke="#9EAE3B" stroke-width="2" stroke-miterlimit="10" cx="29" cy="29" r="27.8"/>
<path fill="#9EAE3B" d="M44.1,28.7c0,0,0.4-5.6,0-6c-0.4-0.4-1.6-0.1-2.4-0.3c-0.1-0.8,0-2.8-0.2-3c-0.5-0.5-3.5-0.6-3.5-0.6
	c-0.5,1.6-0.9,8.5-1.2,9.1c-8.6-1.1-14.5-1.1-14.5-1.1s-1.5-8.9-1.9-9.6c-0.8-0.3-3.9,0.8-3.9,0.8l0.1,4.1c0,0-1.4,0.4-2,0.7
	c-0.5,0.2-0.3,5.1-0.3,5.1s-1.1,0-2.1,0.4c-0.5,0.2,0,2,0,2h2.5l0.6,4.9c0.5,0.2,2.9,0,2.9,0l0.4,3.4c0,0,3.1,0.5,3.7,0
	c0.5-1.2,0-8.8,0-8.8s5.8-0.3,14.1,1.1L35,38.1c0.1,0.4,3.4,0.2,3.9,0c0.5-0.2,1.5-2.6,1.5-2.6s1.3,0,2.2-0.3
	c0.2-0.1,1.3-3.6,1.3-3.6s1,0.1,1.8,0.2c0.3-0.3,0.3-2.6,0.3-2.6L44.1,28.7z"/>
</svg>
