<?xml version="1.0" encoding="utf-8"?>
<!-- Generator: Adobe Illustrator 18.0.0, SVG Export Plug-In . SVG Version: 6.00 Build 0)  -->
<!DOCTYPE svg PUBLIC "-//W3C//DTD SVG 1.1//EN" "http://www.w3.org/Graphics/SVG/1.1/DTD/svg11.dtd">
<svg version="1.1" id="Layer_1" xmlns="http://www.w3.org/2000/svg" xmlns:xlink="http://www.w3.org/1999/xlink" x="0px" y="0px"
	 viewBox="0 0 58 58" enable-background="new 0 0 58 58" xml:space="preserve">
<circle fill="none" stroke="#9EAE3B" stroke-width="2" stroke-miterlimit="10" cx="29" cy="29" r="27.8"/>
<path fill="#9EAE3B" d="M39.9,26.8c-0.8,0-1.5,0.1-2.2,0.4l-2.1-3.8l0.7-2.1h1.4c0.6,0,1.1-0.5,1.1-1.1c0-0.6-0.5-1.1-1.1-1.1h-4.4
	c-0.6,0-1.1,0.5-1.1,1.1c0,0.6,0.5,1.1,1.1,1.1H34l-0.4,1.1H23.4l0.8-2.2h2.5c0.6,0,1.1-0.5,1.1-1.1c0-0.6-0.5-1.1-1.1-1.1h-3.3
	c-0.5,0-0.9,0.3-1,0.7l-3.1,8.2c-0.4-0.1-0.9-0.1-1.3-0.1c-3.6,0-6.6,2.9-6.6,6.6c0,3.6,2.9,6.6,6.6,6.6c3.6,0,6.6-2.9,6.6-6.6
	c0-2.4-1.3-4.5-3.2-5.6l0.4-1.1l8.6,7.6c0.2,0.2,0.5,0.3,0.7,0.3h2.3c0.5,3.1,3.2,5.5,6.5,5.5c3.6,0,6.6-2.9,6.6-6.6
	C46.5,29.8,43.6,26.8,39.9,26.8z M22.4,33.4c0,2.4-2,4.4-4.4,4.4s-4.4-2-4.4-4.4c0-2.4,2-4.4,4.4-4.4c0.2,0,0.3,0,0.5,0L17,33
	c0,0.1-0.1,0.3-0.1,0.4c0,0.4,0.3,0.9,0.7,1c0.1,0,0.3,0.1,0.4,0.1c0.4,0,0.9-0.3,1-0.7l1.5-3.9C21.7,30.6,22.4,31.9,22.4,33.4z
	 M23.2,24.6H33l-2.3,6.8l-7.5-6.6L23.2,24.6z M34.7,26.2l1.1,2c-1.2,1-2.1,2.4-2.4,4h-0.8L34.7,26.2z M38.1,32.3h-2.4
	c0.2-0.8,0.6-1.5,1.2-2.1L38.1,32.3z M39.9,37.8c-2,0-3.7-1.4-4.2-3.3h4.2c0.4,0,0.7-0.2,0.9-0.5c0.1-0.2,0.2-0.4,0.2-0.6
	c0-0.2,0-0.4-0.1-0.5l-2.1-3.7c0.4-0.1,0.7-0.1,1.1-0.1c2.4,0,4.4,2,4.4,4.4C44.3,35.8,42.3,37.8,39.9,37.8z"/>
</svg>
