<?xml version="1.0" encoding="utf-8"?>
<!-- Generator: Adobe Illustrator 18.0.0, SVG Export Plug-In . SVG Version: 6.00 Build 0)  -->
<!DOCTYPE svg PUBLIC "-//W3C//DTD SVG 1.1//EN" "http://www.w3.org/Graphics/SVG/1.1/DTD/svg11.dtd">
<svg version="1.1" id="Layer_1" xmlns="http://www.w3.org/2000/svg" xmlns:xlink="http://www.w3.org/1999/xlink" x="0px" y="0px"
	 viewBox="0 0 58 58" enable-background="new 0 0 58 58" xml:space="preserve">
<circle fill="none" stroke="#9EAE3B" stroke-width="2" stroke-miterlimit="10" cx="29" cy="29" r="27.8"/>
<path fill="#9EAE3B" d="M19.5,23.8c0-1.7,1.2-3.1,2.9-3.3c0,0,0,0,0,0c0-3.7,3-6.7,6.6-6.7c3.7,0,6.7,3,6.7,6.7c0,0,0,0,0,0
	c1.6,0.2,2.9,1.6,2.9,3.3c0,1.8-1.5,3.3-3.3,3.3H22.8C21,27.1,19.5,25.6,19.5,23.8z M27.2,42.8c0.2,0.8,1,1.4,1.8,1.4
	c0.8,0,1.6-0.6,1.8-1.4L34.7,29H23.3L27.2,42.8z"/>
</svg>
