<?xml version="1.0" encoding="utf-8"?>
<!-- Generator: Adobe Illustrator 18.0.0, SVG Export Plug-In . SVG Version: 6.00 Build 0)  -->
<!DOCTYPE svg PUBLIC "-//W3C//DTD SVG 1.1//EN" "http://www.w3.org/Graphics/SVG/1.1/DTD/svg11.dtd">
<svg version="1.1" id="Layer_1" xmlns="http://www.w3.org/2000/svg" xmlns:xlink="http://www.w3.org/1999/xlink" x="0px" y="0px"
	 viewBox="0 0 58 58" enable-background="new 0 0 58 58" xml:space="preserve">
<circle fill="none" stroke="#9EAE3B" stroke-width="2" stroke-miterlimit="10" cx="29" cy="29" r="27.8"/>
<path fill="#9EAE3B" d="M40,26.5h-0.4c-0.1-0.3-0.2-0.7-0.2-1C39.2,25,38,22.3,37,21.2c-1.3-1.6-3.9-2.3-8-2.3c-4.1,0-6.7,0.7-8,2.3
	c-1,1.2-2.2,3.9-2.3,4.4c-0.1,0.3-0.2,0.6-0.2,1H18c-2.1,0-2.5,1.1-2.5,2.1c0,0.4,0.3,0.8,0.7,0.8l1.5,0.2c-0.3,1.9-0.6,4-0.6,6.1
	v2.5c0,0.5,0.4,0.8,0.8,0.8h1.7c0.5,0,0.8-0.4,0.8-0.8v-0.8h16.9v0.8c0,0.5,0.4,0.8,0.8,0.8H40c0.5,0,0.8-0.4,0.8-0.8v-2.5
	c0-2.1-0.2-4.2-0.6-6.1l1.5-0.2c0.4-0.1,0.7-0.4,0.7-0.8C42.5,27.6,42.1,26.5,40,26.5z M20.6,34.9c-0.9,0-1.7-0.8-1.7-1.7
	c0-0.9,0.8-1.7,1.7-1.7c0.9,0,1.7,0.8,1.7,1.7C22.2,34.2,21.5,34.9,20.6,34.9z M29,29.8c-4.4,0-7.5-0.6-9.3-1.3
	c0.8-4.1,2.1-5.7,2.6-6.3c0.7-0.8,2.4-1.7,6.8-1.7s6,0.8,6.8,1.7c0.5,0.5,1.7,2.2,2.6,6.3C36.5,29.2,33.4,29.8,29,29.8z M37.4,34.9
	c-0.9,0-1.7-0.8-1.7-1.7c0-0.9,0.8-1.7,1.7-1.7c0.9,0,1.7,0.8,1.7,1.7C39.1,34.2,38.4,34.9,37.4,34.9z"/>
</svg>
