<?xml version="1.0" encoding="utf-8"?>
<!-- Generator: Adobe Illustrator 18.0.0, SVG Export Plug-In . SVG Version: 6.00 Build 0)  -->
<!DOCTYPE svg PUBLIC "-//W3C//DTD SVG 1.0//EN" "http://www.w3.org/TR/2001/REC-SVG-20010904/DTD/svg10.dtd">
<svg version="1.0" id="Layer_1" xmlns="http://www.w3.org/2000/svg" xmlns:xlink="http://www.w3.org/1999/xlink" x="0px" y="0px"
	 width="60px" height="60px" viewBox="520 520 60 60" enable-background="new 520 520 60 60" xml:space="preserve">
<circle fill="none" stroke="#9EAE3B" stroke-width="2" stroke-miterlimit="10" cx="550" cy="550" r="29"/>
<path fill="#9EAE3B" d="M562.3,543h-7v-1.8c0-1-0.8-1.8-1.8-1.8h-7c-1,0-1.8,0.8-1.8,1.8v1.8h-7c-1,0-1.8,0.8-1.8,1.8v14
	c0,1,0.8,1.8,1.8,1.8h24.6c1,0,1.8-0.8,1.8-1.8v-14C564,543.8,563.3,543,562.3,543z M546.5,541.2h7v1.8h-7V541.2z M555.3,553.5h-3.5
	v3.5h-3.5v-3.5h-3.5V550h3.5v-3.5h3.5v3.5h3.5V553.5z"/>
</svg>
