<?xml version="1.0" encoding="utf-8"?>
<!-- Generator: Adobe Illustrator 18.0.0, SVG Export Plug-In . SVG Version: 6.00 Build 0)  -->
<!DOCTYPE svg PUBLIC "-//W3C//DTD SVG 1.1//EN" "http://www.w3.org/Graphics/SVG/1.1/DTD/svg11.dtd">
<svg version="1.1" id="Layer_1" xmlns="http://www.w3.org/2000/svg" xmlns:xlink="http://www.w3.org/1999/xlink" x="0px" y="0px"
	 viewBox="0 0 58 58" enable-background="new 0 0 58 58" xml:space="preserve">
<circle fill="none" stroke="#9EAE3B" stroke-width="2" stroke-miterlimit="10" cx="29" cy="29" r="27.8"/>
<path fill="#9EAE3B" d="M45.4,22.1L34,17c0,2.2-1.8,4-4,4s-4-1.8-4-4l-11.4,5.1C14.2,22.3,14,22.6,14,23c0,0.1,0,0.2,0.1,0.4l2,5
	c0.2,0.4,0.5,0.6,0.9,0.6c0.1,0,0.2,0,0.3-0.1l4.7-1.6V40c0,0.6,0.4,1,1,1h14c0.6,0,1-0.4,1-1V27.4l4.7,1.6c0.1,0,0.2,0.1,0.3,0.1
	c0.4,0,0.8-0.2,0.9-0.6l2-5c0-0.1,0.1-0.2,0.1-0.4C46,22.6,45.8,22.3,45.4,22.1z"/>
</svg>
