<?xml version="1.0" encoding="utf-8"?>
<!-- Generator: Adobe Illustrator 18.0.0, SVG Export Plug-In . SVG Version: 6.00 Build 0)  -->
<!DOCTYPE svg PUBLIC "-//W3C//DTD SVG 1.1//EN" "http://www.w3.org/Graphics/SVG/1.1/DTD/svg11.dtd">
<svg version="1.1" id="Icons" xmlns="http://www.w3.org/2000/svg" xmlns:xlink="http://www.w3.org/1999/xlink" x="0px" y="0px"
	 viewBox="0 0 86 86" enable-background="new 0 0 86 86" xml:space="preserve">
<circle fill="none" stroke="#9EAE3D" stroke-width="2" stroke-miterlimit="10" cx="43" cy="43" r="42"/>
<path fill="#9EAE3D" d="M57.8,30.4c-1.8-1.8-4.1-2.7-6.6-2.7s-4.8,1-6.6,2.7c-0.7,0.7-1.2,1.4-1.6,2.2c-0.4-0.8-1-1.5-1.6-2.2
	c-1.8-1.8-4.1-2.7-6.6-2.7s-4.8,1-6.6,2.7c-1.8,1.8-2.7,4.1-2.7,6.6c0,2.5,1,4.8,2.7,6.6l13.2,14.1c0.4,0.4,1,0.7,1.6,0.7
	s1.2-0.3,1.6-0.7l13.2-14.1c1.8-1.8,2.7-4.1,2.7-6.6C60.5,34.5,59.5,32.2,57.8,30.4z"/>
</svg>
