<?xml version="1.0" encoding="utf-8"?>
<!-- Generator: Adobe Illustrator 18.0.0, SVG Export Plug-In . SVG Version: 6.00 Build 0)  -->
<!DOCTYPE svg PUBLIC "-//W3C//DTD SVG 1.1//EN" "http://www.w3.org/Graphics/SVG/1.1/DTD/svg11.dtd">
<svg version="1.1" id="Icons" xmlns="http://www.w3.org/2000/svg" xmlns:xlink="http://www.w3.org/1999/xlink" x="0px" y="0px"
	 viewBox="0 0 16.1 16.1" enable-background="new 0 0 16.1 16.1" xml:space="preserve">
<path fill="#FFFFFF" d="M15.4,15.4C15,15.8,14.5,16,14,16c-0.5,0-1-0.2-1.4-0.6l-3.1-3.1c-0.9,0.5-1.9,0.7-3,0.7
	C2.9,13,0,10.1,0,6.5C0,2.9,2.9,0,6.5,0C10.1,0,13,2.9,13,6.5c0,1.1-0.3,2.1-0.7,3l3.1,3.1C16.2,13.4,16.2,14.6,15.4,15.4z M6.5,10
	C8.4,10,10,8.4,10,6.5S8.4,3,6.5,3C4.6,3,3,4.6,3,6.5S4.6,10,6.5,10z"/>
</svg>
