<?xml version="1.0" encoding="utf-8"?>
<!-- Generator: Adobe Illustrator 18.0.0, SVG Export Plug-In . SVG Version: 6.00 Build 0)  -->
<!DOCTYPE svg PUBLIC "-//W3C//DTD SVG 1.1//EN" "http://www.w3.org/Graphics/SVG/1.1/DTD/svg11.dtd">
<svg version="1.1" id="Icons" xmlns="http://www.w3.org/2000/svg" xmlns:xlink="http://www.w3.org/1999/xlink" x="0px" y="0px"
	 viewBox="0 0 86 86" enable-background="new 0 0 86 86" xml:space="preserve">
<circle fill="none" stroke="#5FB8DD" stroke-width="2" stroke-miterlimit="10" cx="43" cy="43" r="42"/>
<path fill="#5FB8DD" d="M29,35.3c0-2.5,1.8-4.5,4.2-4.8c0,0,0,0,0-0.1c0-5.4,4.4-9.8,9.8-9.8c5.4,0,9.8,4.4,9.8,9.8c0,0,0,0,0,0.1
	c2.4,0.3,4.2,2.4,4.2,4.8c0,2.7-2.2,4.9-4.9,4.9H33.9C31.2,40.2,29,38,29,35.3z M40.3,63.4c0.3,1.2,1.4,2,2.7,2c1.3,0,2.3-0.8,2.7-2
	L51.4,43H34.6L40.3,63.4z"/>
</svg>
