<svg xmlns="http://www.w3.org/2000/svg" viewBox="0 18.1 58 21.8" enable-background="new 0 18.1 58 21.8"><path fill="#E5B722" d="M57.5 20.6c-1.3-2-5-3.4-6.6-1.8-.2.2-.4.4-.5.6.5.1.9.4 1.1.8.3.5.3 1.9-.2 2.7.2.2.3.4.4.6.2.4.4.8.4 1.4.4.2.7.4 1 .4.6.2 1.3.2 1.9.1.8-.1 1.5-.4 2-.9.9-1 1.4-2.5.5-3.9z"/><path fill="#61B7DD" d="M48.9 23c.3-.2.7-.4 1.1-.5-.5-1.1-.3-2.2.4-3.1-.5-.1-1.1-.1-1.7.1-1.1.3-1.4.7-1.4 1.8 0 .8.4 1.7 1.1 2.1.2-.1.4-.3.5-.4z"/><path fill="#DDB929" d="M50 22.5c.3-.1.7 0 1 .2.2.1.3.2.4.3.5-.8.4-2.2.2-2.7s-.6-.7-1.1-.8c-.8.8-.9 1.9-.5 3z"/><path fill="#638139" d="M50 22.5c.3-.1.7 0 1 .2.2.1.3.2.4.3.5-.8.4-2.2.2-2.7s-.6-.7-1.1-.8c-.8.8-.9 1.9-.5 3z"/><path fill="#E71089" d="M50.6 23.5c-.4.2-.6.2-.9.2-.5.1-.9-.1-1.2-.3-.5.6-.8 1.5-.6 2.2.4 0 .7.1.8.4.1.2.1.5.1.8 1 .6 1.9.3 3-.9.3-.3.3-.6.3-1-.4-.2-.7-.4-.8-.6-.3-.3-.5-.5-.7-.8z"/><path fill="#DDB929" d="M51.3 22.9c-.1.2-.2.3-.4.4-.2.1-.3.2-.4.2.2.3.4.5.6.7.2.2.5.4.8.6 0-.5-.2-1-.4-1.4.2-.1 0-.3-.2-.5z"/><path fill="#BD2429" d="M51.3 22.9c-.1.2-.2.3-.4.4-.2.1-.3.2-.4.2.2.3.4.5.6.7.2.2.5.4.8.6 0-.5-.2-1-.4-1.4.2-.1 0-.3-.2-.5z"/><path fill="#61B6DC" d="M49.7 23.7c.3-.1.5-.1.9-.2-.3-.3-.5-.7-.6-1-.4.1-.8.3-1.1.5-.2.1-.3.3-.4.4.3.2.8.3 1.2.3z"/><path fill="#6E2A77" d="M49.7 23.7c.3-.1.5-.1.9-.2-.3-.3-.5-.7-.6-1-.4.1-.8.3-1.1.5-.2.1-.3.3-.4.4.3.2.8.3 1.2.3z"/><path fill="#DDB929" d="M51 22.7c-.3-.2-.6-.2-1-.2.2.3.3.7.6 1 .1-.1.3-.1.4-.2.2-.1.3-.2.4-.4-.1-.1-.3-.2-.4-.2z"/><path fill="#61B6DC" d="M51 22.7c-.3-.2-.6-.2-1-.2.2.3.3.7.6 1 .1-.1.3-.1.4-.2.2-.1.3-.2.4-.4-.1-.1-.3-.2-.4-.2z"/><path fill="#68262E" d="M51 22.7c-.3-.2-.6-.2-1-.2.2.3.3.7.6 1 .1-.1.3-.1.4-.2.2-.1.3-.2.4-.4-.1-.1-.3-.2-.4-.2z"/><path fill="#ED8027" d="M47.9 25.5c-.2 0-.3.1-.4.1-.5.1-.6.3-.6.8 0 .6.4 1.1 1 1 .2 0 .4-.1.6-.2.2-.2.3-.3.3-.6l-.1-.1c-.4-.1-.7-.5-.8-1z"/><path fill="#E61489" d="M48.8 25.9c-.2-.3-.5-.4-.8-.4.1.4.4.8.8 1.1.1 0 .1.1.1.1 0-.3-.1-.6-.1-.8z"/><path fill="#EC8028" d="M48.8 25.9c-.2-.3-.5-.4-.8-.4.1.4.4.8.8 1.1.1 0 .1.1.1.1 0-.3-.1-.6-.1-.8z"/><path fill="#CD1F42" d="M48.8 25.9c-.2-.3-.5-.4-.9-.4.1.4.4.8.8 1.1.1 0 .1.1.1.1.1-.3 0-.6 0-.8"/><path fill="#fff" d="M54.6 29.2c-.6-.1-1.3-.2-1.7-.2-2.2 0-3.4 1.5-3.4 3.8 0 2 .8 3.3 2.4 3.3 1.1 0 1.7-.6 2.1-1.2v.6c0 .3.2.6.5.6s.5-.3.5-.6v-5.4c.1-.4.1-.7-.4-.9zm-.6 3.7c0 .9-.6 2.3-2 2.3-1 0-1.4-1.2-1.4-2.4 0-1.7.5-3 2.1-3 .5 0 1 .1 1.3.2v2.9zm-7-3.3c0-.3.3-.6.6-.6s.6.3.6.6v5.9c0 .3-.3.6-.6.6s-.6-.3-.6-.6v-5.9zm-2 5.3c.2-.1.4-.2.6-.2s.4.2.4.5c0 .2-.1.3-.3.4-.5.3-1.2.6-2.1.6-1.9 0-3-1.2-3-3.6 0-2.8 1.7-3.6 3-3.6.7 0 1.5.2 2.1.7.1.1.2.3.2.4 0 .3-.2.5-.5.5-.2 0-.3-.1-.5-.2-.5-.4-.9-.5-1.4-.5-1 0-1.8.8-1.8 2.5 0 1.6.6 2.7 1.9 2.7.6.1 1 0 1.4-.2M36.9 29c-1.4 0-3.1.7-3.1 3.5 0 2.4 1.1 3.6 2.9 3.6 1.7 0 3.1-1.1 3.1-3.7-.1-3.1-2-3.4-2.9-3.4zm-.1 6.2c-1.5 0-1.8-1.6-1.8-2.9 0-1.5.6-2.5 1.9-2.5 1.2 0 1.8 1.1 1.8 2.7-.1 1.5-.7 2.7-1.9 2.7zm-8.2-.5c.2 0 .3.1.4.1.4.2.9.4 1.6.4.7 0 1.3-.4 1.3-1.1 0-.7-.7-1-1.5-1.2-.9-.3-1.9-.6-1.9-1.9 0-1.4 1.1-2 2.3-2 .7 0 1.4.2 1.8.5.1.1.3.2.3.5s-.2.5-.4.5c-.1 0-.3-.1-.4-.2-.4-.3-.8-.4-1.3-.4-.6 0-1.2.2-1.2.9s.7.9 1.5 1.2c.9.3 2 .7 2 2 0 1.4-.9 2-2.3 2-1 0-1.6-.3-2-.5-.2-.1-.3-.3-.3-.5-.3-.1-.2-.3.1-.3M19 31.6c0-.9-.3-1.7-1.4-1.7-1 0-1.8 1-1.8 2.2v3.4c0 .3-.3.6-.6.6s-.6-.3-.6-.6v-5.9c0-.3.2-.6.5-.6s.6.3.6.6v.5c.5-.8 1.2-1.1 2-1.1 1.5 0 2.3.8 2.3 2.3v4.2c0 .3-.3.6-.6.6s-.4-.3-.4-.6v-3.9zm-9.5-2.2c.1-.2.3-.4.5-.4.4 0 .7.3.5.8l-2.1 5.8c-.1.2-.2.4-.5.4s-.4-.2-.5-.5l-2.1-5.7c-.2-.4.1-.8.5-.8.3 0 .4.2.5.4l1.6 4.4 1.6-4.4zM0 26.8c0-.3.3-.6.6-.6s.6.3.6.6v8.7c0 .3-.3.6-.6.6s-.6-.2-.6-.5v-8.8zm56.9 0c0-.3.3-.6.6-.6s.6.3.6.6v8.7c0 .3-.3.6-.6.6s-.6-.3-.6-.6v-8.7zm-30.5 2.4c-.5-.1-1-.2-1.6-.2-1.7 0-3.2 1.2-3.2 3.4 0 2.4 1 3.3 2.3 3.4l-.3.2c-.7.5-1.5 1-1.5 2.1s.7 1.9 2.1 1.9c2.7 0 2.8-2.5 2.8-4v-5.7c.1-.9-.1-1-.6-1.1zm-.3 7.2c0 1.5-.4 2.7-1.7 2.7-.7 0-1.2-.3-1.2-1 0-.6.6-1.1 1.3-1.8L26 35l.1 1.4zm0-3.5c0 1-.7 2.1-1.6 2.1-1.7 0-1.7-1.7-1.7-2.5 0-1.7.8-2.6 2-2.6.6 0 .9.1 1.4.2v2.8h-.1zm-14.2-3.3c0-.3.3-.6.6-.6s.6.3.6.6v5.9c0 .3-.3.6-.6.6s-.6-.3-.6-.6v-5.9zm-8.9 0c0-.3.3-.6.6-.6s.6.3.6.6v5.9c0 .3-.3.6-.6.6s-.6-.3-.6-.6v-5.9z"/></svg>