<?xml version="1.0" encoding="utf-8"?>
<!-- Generator: Adobe Illustrator 18.0.0, SVG Export Plug-In . SVG Version: 6.00 Build 0)  -->
<!DOCTYPE svg PUBLIC "-//W3C//DTD SVG 1.1//EN" "http://www.w3.org/Graphics/SVG/1.1/DTD/svg11.dtd">
<svg version="1.1" id="Layer_1" xmlns="http://www.w3.org/2000/svg" xmlns:xlink="http://www.w3.org/1999/xlink" x="0px" y="0px"
	 viewBox="0 18.1 58 21.8" enable-background="new 0 18.1 58 21.8" xml:space="preserve">
<g>
	<g>
		<g>
			<path fill="#E5B722" d="M57.5,20.6c-1.3-2-5-3.4-6.6-1.8c-0.2,0.2-0.4,0.4-0.5,0.6c0.5,0.1,0.9,0.4,1.1,0.8
				c0.3,0.5,0.3,1.9-0.2,2.7c0.2,0.2,0.3,0.4,0.4,0.6c0.2,0.4,0.4,0.8,0.4,1.4c0.4,0.2,0.7,0.4,1,0.4c0.6,0.2,1.3,0.2,1.9,0.1
				c0.8-0.1,1.5-0.4,2-0.9C57.9,23.5,58.4,22,57.5,20.6z"/>
			<path fill="#61B7DD" d="M48.9,23c0.3-0.2,0.7-0.4,1.1-0.5c-0.5-1.1-0.3-2.2,0.4-3.1c-0.5-0.1-1.1-0.1-1.7,0.1
				c-1.1,0.3-1.4,0.7-1.4,1.8c0,0.8,0.4,1.7,1.1,2.1C48.6,23.3,48.8,23.1,48.9,23z"/>
			<path fill="#DDB929" d="M50,22.5c0.3-0.1,0.7,0,1,0.2c0.2,0.1,0.3,0.2,0.4,0.3c0.5-0.8,0.4-2.2,0.2-2.7c-0.2-0.5-0.6-0.7-1.1-0.8
				C49.7,20.3,49.6,21.4,50,22.5z"/>
			<path fill="#638139" d="M50,22.5c0.3-0.1,0.7,0,1,0.2c0.2,0.1,0.3,0.2,0.4,0.3c0.5-0.8,0.4-2.2,0.2-2.7c-0.2-0.5-0.6-0.7-1.1-0.8
				C49.7,20.3,49.6,21.4,50,22.5z"/>
			<path fill="#E71089" d="M50.6,23.5c-0.4,0.2-0.6,0.2-0.9,0.2c-0.5,0.1-0.9-0.1-1.2-0.3c-0.5,0.6-0.8,1.5-0.6,2.2l0,0l0,0
				c0.4,0,0.7,0.1,0.8,0.4c0.1,0.2,0.1,0.5,0.1,0.8c1,0.6,1.9,0.3,3-0.9c0.3-0.3,0.3-0.6,0.3-1c-0.4-0.2-0.7-0.4-0.8-0.6
				C51,24,50.8,23.8,50.6,23.5z"/>
			<path fill="#DDB929" d="M51.3,22.9c-0.1,0.2-0.2,0.3-0.4,0.4c-0.2,0.1-0.3,0.2-0.4,0.2c0.2,0.3,0.4,0.5,0.6,0.7
				c0.2,0.2,0.5,0.4,0.8,0.6c0-0.5-0.2-1-0.4-1.4C51.7,23.3,51.5,23.1,51.3,22.9z"/>
			<path fill="#BD2429" d="M51.3,22.9c-0.1,0.2-0.2,0.3-0.4,0.4c-0.2,0.1-0.3,0.2-0.4,0.2c0.2,0.3,0.4,0.5,0.6,0.7
				c0.2,0.2,0.5,0.4,0.8,0.6c0-0.5-0.2-1-0.4-1.4C51.7,23.3,51.5,23.1,51.3,22.9z"/>
			<path fill="#61B6DC" d="M49.7,23.7c0.3-0.1,0.5-0.1,0.9-0.2c-0.3-0.3-0.5-0.7-0.6-1c-0.4,0.1-0.8,0.3-1.1,0.5
				c-0.2,0.1-0.3,0.3-0.4,0.4C48.8,23.6,49.3,23.7,49.7,23.7z"/>
			<path fill="#6E2A77" d="M49.7,23.7c0.3-0.1,0.5-0.1,0.9-0.2c-0.3-0.3-0.5-0.7-0.6-1c-0.4,0.1-0.8,0.3-1.1,0.5
				c-0.2,0.1-0.3,0.3-0.4,0.4C48.8,23.6,49.3,23.7,49.7,23.7z"/>
			<path fill="#DDB929" d="M51,22.7c-0.3-0.2-0.6-0.2-1-0.2c0.2,0.3,0.3,0.7,0.6,1c0.1-0.1,0.3-0.1,0.4-0.2c0.2-0.1,0.3-0.2,0.4-0.4
				C51.3,22.8,51.1,22.7,51,22.7z"/>
			<path fill="#61B6DC" d="M51,22.7c-0.3-0.2-0.6-0.2-1-0.2c0.2,0.3,0.3,0.7,0.6,1c0.1-0.1,0.3-0.1,0.4-0.2c0.2-0.1,0.3-0.2,0.4-0.4
				C51.3,22.8,51.1,22.7,51,22.7z"/>
			<path fill="#68262E" d="M51,22.7c-0.3-0.2-0.6-0.2-1-0.2c0.2,0.3,0.3,0.7,0.6,1c0.1-0.1,0.3-0.1,0.4-0.2c0.2-0.1,0.3-0.2,0.4-0.4
				C51.3,22.8,51.1,22.7,51,22.7z"/>
			<path fill="#ED8027" d="M47.9,25.5L47.9,25.5c-0.2,0-0.3,0.1-0.4,0.1c-0.5,0.1-0.6,0.3-0.6,0.8c0,0.6,0.4,1.1,1,1
				c0.2,0,0.4-0.1,0.6-0.2c0.2-0.2,0.3-0.3,0.3-0.6l-0.1-0.1C48.3,26.4,48,26,47.9,25.5z"/>
			<path fill="#E61489" d="M48.8,25.9c-0.2-0.3-0.5-0.4-0.8-0.4c0.1,0.4,0.4,0.8,0.8,1.1c0.1,0,0.1,0.1,0.1,0.1
				C48.9,26.4,48.8,26.1,48.8,25.9z"/>
			<path fill="#EC8028" d="M48.8,25.9c-0.2-0.3-0.5-0.4-0.8-0.4c0.1,0.4,0.4,0.8,0.8,1.1c0.1,0,0.1,0.1,0.1,0.1
				C48.9,26.4,48.8,26.1,48.8,25.9z"/>
			<path fill="#CD1F42" d="M48.8,25.9c-0.2-0.3-0.5-0.4-0.9-0.4c0.1,0.4,0.4,0.8,0.8,1.1c0.1,0,0.1,0.1,0.1,0.1
				C48.9,26.4,48.8,26.1,48.8,25.9"/>
		</g>
		<path fill="#FFFFFF" d="M54.6,29.2C54,29.1,53.3,29,52.9,29c-2.2,0-3.4,1.5-3.4,3.8c0,2,0.8,3.3,2.4,3.3c1.1,0,1.7-0.6,2.1-1.2
			v0.6c0,0.3,0.2,0.6,0.5,0.6s0.5-0.3,0.5-0.6v-5.4C55.1,29.7,55.1,29.4,54.6,29.2z M54,32.9c0,0.9-0.6,2.3-2,2.3
			c-1,0-1.4-1.2-1.4-2.4c0-1.7,0.5-3,2.1-3c0.5,0,1,0.1,1.3,0.2V32.9z M47,29.6c0-0.3,0.3-0.6,0.6-0.6c0.3,0,0.6,0.3,0.6,0.6v5.9
			c0,0.3-0.3,0.6-0.6,0.6c-0.3,0-0.6-0.3-0.6-0.6V29.6z M45,34.9c0.2-0.1,0.4-0.2,0.6-0.2s0.4,0.2,0.4,0.5c0,0.2-0.1,0.3-0.3,0.4
			c-0.5,0.3-1.2,0.6-2.1,0.6c-1.9,0-3-1.2-3-3.6c0-2.8,1.7-3.6,3-3.6c0.7,0,1.5,0.2,2.1,0.7c0.1,0.1,0.2,0.3,0.2,0.4
			c0,0.3-0.2,0.5-0.5,0.5c-0.2,0-0.3-0.1-0.5-0.2c-0.5-0.4-0.9-0.5-1.4-0.5c-1,0-1.8,0.8-1.8,2.5c0,1.6,0.6,2.7,1.9,2.7
			C44.2,35.2,44.6,35.1,45,34.9 M36.9,29c-1.4,0-3.1,0.7-3.1,3.5c0,2.4,1.1,3.6,2.9,3.6c1.7,0,3.1-1.1,3.1-3.7
			C39.7,29.3,37.8,29,36.9,29z M36.8,35.2c-1.5,0-1.8-1.6-1.8-2.9c0-1.5,0.6-2.5,1.9-2.5c1.2,0,1.8,1.1,1.8,2.7
			C38.6,34,38,35.2,36.8,35.2z M28.6,34.7c0.2,0,0.3,0.1,0.4,0.1c0.4,0.2,0.9,0.4,1.6,0.4c0.7,0,1.3-0.4,1.3-1.1
			c0-0.7-0.7-1-1.5-1.2c-0.9-0.3-1.9-0.6-1.9-1.9c0-1.4,1.1-2,2.3-2c0.7,0,1.4,0.2,1.8,0.5c0.1,0.1,0.3,0.2,0.3,0.5
			s-0.2,0.5-0.4,0.5c-0.1,0-0.3-0.1-0.4-0.2c-0.4-0.3-0.8-0.4-1.3-0.4c-0.6,0-1.2,0.2-1.2,0.9c0,0.7,0.7,0.9,1.5,1.2
			c0.9,0.3,2,0.7,2,2c0,1.4-0.9,2-2.3,2c-1,0-1.6-0.3-2-0.5c-0.2-0.1-0.3-0.3-0.3-0.5C28.2,34.9,28.3,34.7,28.6,34.7 M19,31.6
			c0-0.9-0.3-1.7-1.4-1.7c-1,0-1.8,1-1.8,2.2v3.4c0,0.3-0.3,0.6-0.6,0.6s-0.6-0.3-0.6-0.6v-5.9c0-0.3,0.2-0.6,0.5-0.6
			s0.6,0.3,0.6,0.6v0.5c0.5-0.8,1.2-1.1,2-1.1c1.5,0,2.3,0.8,2.3,2.3v4.2c0,0.3-0.3,0.6-0.6,0.6S19,35.8,19,35.5L19,31.6L19,31.6z
			 M9.5,29.4C9.6,29.2,9.8,29,10,29c0.4,0,0.7,0.3,0.5,0.8l-2.1,5.8C8.3,35.8,8.2,36,7.9,36c-0.3,0-0.4-0.2-0.5-0.5l-2.1-5.7
			C5.1,29.4,5.4,29,5.8,29c0.3,0,0.4,0.2,0.5,0.4l1.6,4.4L9.5,29.4z M0,26.8c0-0.3,0.3-0.6,0.6-0.6s0.6,0.3,0.6,0.6v8.7
			c0,0.3-0.3,0.6-0.6,0.6S0,35.9,0,35.6V26.8z M56.9,26.8c0-0.3,0.3-0.6,0.6-0.6s0.6,0.3,0.6,0.6v8.7c0,0.3-0.3,0.6-0.6,0.6
			s-0.6-0.3-0.6-0.6V26.8z M26.4,29.2c-0.5-0.1-1-0.2-1.6-0.2c-1.7,0-3.2,1.2-3.2,3.4c0,2.4,1,3.3,2.3,3.4l-0.3,0.2
			c-0.7,0.5-1.5,1-1.5,2.1c0,1.1,0.7,1.9,2.1,1.9c2.7,0,2.8-2.5,2.8-4v-5.7C27.1,29.4,26.9,29.3,26.4,29.2z M26.1,36.4
			c0,1.5-0.4,2.7-1.7,2.7c-0.7,0-1.2-0.3-1.2-1c0-0.6,0.6-1.1,1.3-1.8L26,35L26.1,36.4L26.1,36.4z M26.1,32.9c0,1-0.7,2.1-1.6,2.1
			c-1.7,0-1.7-1.7-1.7-2.5c0-1.7,0.8-2.6,2-2.6c0.6,0,0.9,0.1,1.4,0.2V32.9L26.1,32.9z M11.9,29.6c0-0.3,0.3-0.6,0.6-0.6
			s0.6,0.3,0.6,0.6v5.9c0,0.3-0.3,0.6-0.6,0.6s-0.6-0.3-0.6-0.6V29.6z M3,29.6C3,29.3,3.3,29,3.6,29s0.6,0.3,0.6,0.6v5.9
			c0,0.3-0.3,0.6-0.6,0.6S3,35.8,3,35.5V29.6z"/>
	</g>
</g>
</svg>
