<svg xmlns="http://www.w3.org/2000/svg" xmlns:xlink="http://www.w3.org/1999/xlink" width="94" height="891" viewBox="0 0 94 891"><svg viewBox="-4 -4 94 94" enable-background="new 0 0 86 86" width="94" height="94" id="champion-good-ideas" y="0"><circle stroke="#ED3F6E" stroke-width="2" stroke-miterlimit="10" cx="43" cy="43" r="42" fill="none"/><path fill="#ED3F6E" d="M43 23c6.9 0 12.5 5.6 12.5 12.5 0 7.5-6.2 10-7.5 17.5H38c-1.2-7.5-7.5-10-7.5-17.5C30.5 28.6 36.1 23 43 23zm-5 32.5v5c0 .5.3 1 .9 1.2l3.7 1.2c.1 0 .3.1.4.1.1 0 .3 0 .4-.1l3.8-1.2c.5-.2.9-.6.9-1.2v-5H38z"/></svg>
<svg viewBox="-4 -4 94 94" enable-background="new 0 0 86 86" width="94" height="94" id="live-hungry" y="94"><path fill="#E9BA26" d="M59 24.3v37.3c0 1.5-1.2 2.7-2.7 2.7h-2.7c-1.5 0-2.7-1.2-2.7-2.7l1.3-13.3s-5.3-4-5.3-9.3 4-17.3 9.3-17.3c1.5 0 2.8 1.3 2.8 2.6zM43 37.7c0-4-2.3-10.7-2.3-10.7-.1-.3-.3-.7-.7-.7s-.6.3-.7.7l-.7 10c-.1.4-.3.7-1 .7s-.9-.2-1-.7c0-.7-1-10.7-1-10.7 0-.3-.3-.7-.7-.7s-.6.3-.7.7c0 0-1 10-1 10.7-.1.4-.3.7-1 .7s-.9-.3-1-.7l-.7-10c-.1-.3-.3-.7-.7-.7s-.6.3-.7.7c0 0-2.3 6.7-2.3 10.7 0 2.5 2.9 5.5 5.3 6.7L31 61.7c0 1.5 1.2 2.7 2.7 2.7h2.7c1.5 0 2.7-1.2 2.7-2.7l-1.3-17.3c2.3-1.2 5.2-4.3 5.2-6.7z"/><circle stroke="#E9BA26" stroke-width="2" stroke-miterlimit="10" cx="43" cy="43" r="42" fill="none"/></svg>
<svg viewBox="-4 -4 94 94" enable-background="new 0 0 86 86" width="94" height="94" id="make-strong-moves" y="188"><circle stroke="#F0812B" stroke-width="2" stroke-miterlimit="10" cx="43" cy="43" r="42" fill="none"/><g fill="#F0812B"><path d="M59.2 27.3h-4.6V26c-.1-.5-.6-1-1.2-1H32.6c-.6 0-1.1.5-1.1 1.1v1.3h-4.6c-1.3 0-2.3 1-2.3 2.3 0 2.7.7 7.1 2.2 10.7 2.5 6.1 6.1 7.6 8.9 7.8 1.7 2.9 4.2 4.6 7.4 4.6s5.7-1.8 7.4-4.6c2.7-.2 6.3-1.7 8.9-7.8 1.5-3.6 2.2-8 2.2-10.7-.1-1.4-1.1-2.4-2.4-2.4zm-32.4 2.3h4.7c.3 6 1 11.7 2.8 15.9-5.6-1.7-7.5-11.7-7.5-15.9zm24.9 15.9c1.7-4.2 2.5-9.9 2.8-15.9h4.7c0 4.2-1.9 14.2-7.5 15.9zM45.3 57.6v-2.8c-.8.2-1.6.3-2.3.3s-1.5-.1-2.3-.3v2.8c-3.5.6-6 2.5-6.9 4.4h18.4c-.9-1.9-3.4-3.8-6.9-4.4z"/></g></svg>
<svg viewBox="-4 -4 66 66" enable-background="new 0 0 58 58" width="66" height="66" id="perk-bike-racks" y="282"><circle stroke="#9EAE3B" stroke-width="2" stroke-miterlimit="10" cx="29" cy="29" r="27.8" fill="none"/><path fill="#9EAE3B" d="M39.9 26.8c-.8 0-1.5.1-2.2.4l-2.1-3.8.7-2.1h1.4c.6 0 1.1-.5 1.1-1.1 0-.6-.5-1.1-1.1-1.1h-4.4c-.6 0-1.1.5-1.1 1.1 0 .6.5 1.1 1.1 1.1h.7l-.4 1.1H23.4l.8-2.2h2.5c.6 0 1.1-.5 1.1-1.1 0-.6-.5-1.1-1.1-1.1h-3.3c-.5 0-.9.3-1 .7l-3.1 8.2c-.4-.1-.9-.1-1.3-.1-3.6 0-6.6 2.9-6.6 6.6 0 3.6 2.9 6.6 6.6 6.6 3.6 0 6.6-2.9 6.6-6.6 0-2.4-1.3-4.5-3.2-5.6l.4-1.1 8.6 7.6c.2.2.5.3.7.3h2.3c.5 3.1 3.2 5.5 6.5 5.5 3.6 0 6.6-2.9 6.6-6.6 0-3.7-2.9-6.7-6.6-6.7zm-17.5 6.6c0 2.4-2 4.4-4.4 4.4s-4.4-2-4.4-4.4c0-2.4 2-4.4 4.4-4.4h.5L17 33c0 .1-.1.3-.1.4 0 .4.3.9.7 1 .1 0 .3.1.4.1.4 0 .9-.3 1-.7l1.5-3.9c1.2.7 1.9 2 1.9 3.5zm.8-8.8H33l-2.3 6.8-7.5-6.6v-.2zm11.5 1.6l1.1 2c-1.2 1-2.1 2.4-2.4 4h-.8l2.1-6zm3.4 6.1h-2.4c.2-.8.6-1.5 1.2-2.1l1.2 2.1zm1.8 5.5c-2 0-3.7-1.4-4.2-3.3h4.2c.4 0 .7-.2.9-.5.1-.2.2-.4.2-.6 0-.2 0-.4-.1-.5l-2.1-3.7c.4-.1.7-.1 1.1-.1 2.4 0 4.4 2 4.4 4.4 0 2.3-2 4.3-4.4 4.3z"/></svg>
<svg viewBox="-4 -4 66 66" enable-background="new 0 0 58 58" width="66" height="66" id="perk-classes" y="348"><circle stroke="#9EAE3B" stroke-width="2" stroke-miterlimit="10" cx="29" cy="29" r="27.8" fill="none"/><path fill="#9EAE3B" d="M41.9 18.1c-1.5 2.9-9.1 12.9-13 15.3-.1.1-.3.1-.4.1-.2 0-.4-.1-.5-.2L25.7 31c-.1-.1-.2-.3-.2-.5 0-.1 0-.3.1-.4 2.4-3.9 12.4-11.6 15.3-13 .1-.1.2-.1.3-.1.2 0 .4.1.5.2.1.1.2.3.2.5.1.2.1.3 0 .4zM18 41c1.5-3 9 0 9-6.7L24.8 32c-6 0-6.8 6-6.8 9z"/></svg>
<svg viewBox="-4 -4 66 66" enable-background="new 0 0 58 58" width="66" height="66" id="perk-commute-reimbursement" y="414"><circle stroke="#9EAE3B" stroke-width="2" stroke-miterlimit="10" cx="29" cy="29" r="27.8" fill="none"/><path fill="#9EAE3B" d="M40 26.5h-.4c-.1-.3-.2-.7-.2-1-.2-.5-1.4-3.2-2.4-4.3-1.3-1.6-3.9-2.3-8-2.3s-6.7.7-8 2.3c-1 1.2-2.2 3.9-2.3 4.4-.1.3-.2.6-.2 1H18c-2.1 0-2.5 1.1-2.5 2.1 0 .4.3.8.7.8l1.5.2c-.3 1.9-.6 4-.6 6.1v2.5c0 .5.4.8.8.8h1.7c.5 0 .8-.4.8-.8v-.8h16.9v.8c0 .5.4.8.8.8H40c.5 0 .8-.4.8-.8v-2.5c0-2.1-.2-4.2-.6-6.1l1.5-.2c.4-.1.7-.4.7-.8.1-1.1-.3-2.2-2.4-2.2zm-19.4 8.4c-.9 0-1.7-.8-1.7-1.7 0-.9.8-1.7 1.7-1.7.9 0 1.7.8 1.7 1.7-.1 1-.8 1.7-1.7 1.7zm8.4-5.1c-4.4 0-7.5-.6-9.3-1.3.8-4.1 2.1-5.7 2.6-6.3.7-.8 2.4-1.7 6.8-1.7s6 .8 6.8 1.7c.5.5 1.7 2.2 2.6 6.3-2 .7-5.1 1.3-9.5 1.3zm8.4 5.1c-.9 0-1.7-.8-1.7-1.7 0-.9.8-1.7 1.7-1.7.9 0 1.7.8 1.7 1.7 0 1-.7 1.7-1.7 1.7z"/></svg>
<svg viewBox="-4 -4 66 66" enable-background="new 0 0 58 58" width="66" height="66" id="perk-dress-code" y="480"><circle stroke="#9EAE3B" stroke-width="2" stroke-miterlimit="10" cx="29" cy="29" r="27.8" fill="none"/><path fill="#9EAE3B" d="M45.4 22.1L34 17c0 2.2-1.8 4-4 4s-4-1.8-4-4l-11.4 5.1c-.4.2-.6.5-.6.9 0 .1 0 .2.1.4l2 5c.2.4.5.6.9.6.1 0 .2 0 .3-.1l4.7-1.6V40c0 .6.4 1 1 1h14c.6 0 1-.4 1-1V27.4l4.7 1.6c.1 0 .2.1.3.1.4 0 .8-.2.9-.6l2-5c0-.1.1-.2.1-.4 0-.5-.2-.8-.6-1z"/></svg>
<svg viewBox="-4 -4 66 66" enable-background="new 0 0 58 58" width="66" height="66" id="perk-gym-memberships" y="546"><circle stroke="#9EAE3B" stroke-width="2" stroke-miterlimit="10" cx="29" cy="29" r="27.8" fill="none"/><path fill="#9EAE3B" d="M44.1 28.7s.4-5.6 0-6c-.4-.4-1.6-.1-2.4-.3-.1-.8 0-2.8-.2-3-.5-.5-3.5-.6-3.5-.6-.5 1.6-.9 8.5-1.2 9.1-8.6-1.1-14.5-1.1-14.5-1.1s-1.5-8.9-1.9-9.6c-.8-.3-3.9.8-3.9.8l.1 4.1s-1.4.4-2 .7c-.5.2-.3 5.1-.3 5.1s-1.1 0-2.1.4c-.5.2 0 2 0 2h2.5l.6 4.9c.5.2 2.9 0 2.9 0l.4 3.4s3.1.5 3.7 0c.5-1.2 0-8.8 0-8.8s5.8-.3 14.1 1.1L35 38.1c.1.4 3.4.2 3.9 0s1.5-2.6 1.5-2.6 1.3 0 2.2-.3c.2-.1 1.3-3.6 1.3-3.6s1 .1 1.8.2c.3-.3.3-2.6.3-2.6l-1.9-.5z"/></svg>
<svg viewBox="-4 -4 66 66" enable-background="new 0 0 58 58" width="66" height="66" id="perk-snacks-and-drinks" y="612"><circle stroke="#9EAE3B" stroke-width="2" stroke-miterlimit="10" cx="29" cy="29" r="27.8" fill="none"/><path fill="#9EAE3B" d="M19.5 23.8c0-1.7 1.2-3.1 2.9-3.3 0-3.7 3-6.7 6.6-6.7 3.7 0 6.7 3 6.7 6.7 1.6.2 2.9 1.6 2.9 3.3 0 1.8-1.5 3.3-3.3 3.3H22.8c-1.8 0-3.3-1.5-3.3-3.3zm7.7 19c.2.8 1 1.4 1.8 1.4s1.6-.6 1.8-1.4L34.7 29H23.3l3.9 13.8z"/></svg>
<svg viewBox="-4 -4 94 94" enable-background="new 0 0 86 86" width="94" height="94" id="recognize-others" y="678"><circle stroke="#9EAE3D" stroke-width="2" stroke-miterlimit="10" cx="43" cy="43" r="42" fill="none"/><path fill="#9EAE3D" d="M57.8 30.4c-1.8-1.8-4.1-2.7-6.6-2.7s-4.8 1-6.6 2.7c-.7.7-1.2 1.4-1.6 2.2-.4-.8-1-1.5-1.6-2.2-1.8-1.8-4.1-2.7-6.6-2.7s-4.8 1-6.6 2.7c-1.8 1.8-2.7 4.1-2.7 6.6s1 4.8 2.7 6.6l13.2 14.1c.4.4 1 .7 1.6.7s1.2-.3 1.6-.7l13.2-14.1c1.8-1.8 2.7-4.1 2.7-6.6s-1-4.8-2.7-6.6z"/></svg>
<svg viewBox="-4 -4 24.1 24.1" enable-background="new 0 0 16.1 16.1" width="24.1" height="24.1" id="search" y="772"><path fill="#fff" d="M15.4 15.4c-.4.4-.9.6-1.4.6-.5 0-1-.2-1.4-.6l-3.1-3.1c-.9.5-1.9.7-3 .7C2.9 13 0 10.1 0 6.5S2.9 0 6.5 0 13 2.9 13 6.5c0 1.1-.3 2.1-.7 3l3.1 3.1c.8.8.8 2 0 2.8zM6.5 10C8.4 10 10 8.4 10 6.5S8.4 3 6.5 3 3 4.6 3 6.5 4.6 10 6.5 10z"/></svg>
<svg viewBox="-4 -4 94 94" enable-background="new 0 0 86 86" width="94" height="94" id="surprise-and-delight" y="797"><circle stroke="#5FB8DD" stroke-width="2" stroke-miterlimit="10" cx="43" cy="43" r="42" fill="none"/><path fill="#5FB8DD" d="M29 35.3c0-2.5 1.8-4.5 4.2-4.8v-.1c0-5.4 4.4-9.8 9.8-9.8s9.8 4.4 9.8 9.8v.1c2.4.3 4.2 2.4 4.2 4.8 0 2.7-2.2 4.9-4.9 4.9H33.9c-2.7 0-4.9-2.2-4.9-4.9zm11.3 28.1c.3 1.2 1.4 2 2.7 2 1.3 0 2.3-.8 2.7-2L51.4 43H34.6l5.7 20.4z"/></svg>
</svg>